<svg width="28" height="25" viewBox="0 0 28 25" fill="none" xmlns="http://www.w3.org/2000/svg">
<path d="M11.2 0C9.71479 0 8.29041 0.585316 7.2402 1.62718C6.19 2.66905 5.6 4.08213 5.6 5.55556C5.6 7.02898 6.19 8.44206 7.2402 9.48393C8.29041 10.5258 9.71479 11.1111 11.2 11.1111C12.6852 11.1111 14.1096 10.5258 15.1598 9.48393C16.21 8.44206 16.8 7.02898 16.8 5.55556C16.8 4.08213 16.21 2.66905 15.1598 1.62718C14.1096 0.585316 12.6852 0 11.2 0ZM11.2 2.77778C11.9426 2.77778 12.6548 3.07044 13.1799 3.59137C13.705 4.1123 14 4.81884 14 5.55556C14 6.29227 13.705 6.99881 13.1799 7.51974C12.6548 8.04067 11.9426 8.33333 11.2 8.33333C10.4574 8.33333 9.7452 8.04067 9.2201 7.51974C8.695 6.99881 8.4 6.29227 8.4 5.55556C8.4 4.81884 8.695 4.1123 9.2201 3.59137C9.7452 3.07044 10.4574 2.77778 11.2 2.77778ZM11.2 12.5C7.462 12.5 0 14.3472 0 18.0556V22.2222H13.3C12.9477 21.3806 12.7258 20.4909 12.642 19.5833H2.66V18.0556C2.66 17.1667 7.042 15.1389 11.2 15.1389C11.9 15.1389 12.6 15.2083 13.3 15.3194C13.6592 14.4424 14.1553 13.6269 14.77 12.9028C13.454 12.6389 12.194 12.5 11.2 12.5ZM21.7 12.5C18.2 12.5 15.4 15.2778 15.4 18.75C15.4 22.2222 18.2 25 21.7 25C25.2 25 28 22.2222 28 18.75C28 15.2778 25.2 12.5 21.7 12.5ZM21.7 14.5833C24.024 14.5833 25.9 16.4444 25.9 18.75C25.9 19.5278 25.69 20.25 25.312 20.8333L19.6 15.1667C20.188 14.7917 20.916 14.5833 21.7 14.5833ZM18.088 16.6667L23.8 22.3333C23.212 22.7083 22.484 22.9167 21.7 22.9167C19.376 22.9167 17.5 21.0556 17.5 18.75C17.5 17.9722 17.71 17.25 18.088 16.6667Z" fill="black"/>
</svg>
