<svg width="29" height="29" viewBox="0 0 29 29" fill="none" xmlns="http://www.w3.org/2000/svg">
<g clip-path="url(#clip0_33_417)">
<path fill-rule="evenodd" clip-rule="evenodd" d="M3.17188 2.71875C3.0517 2.71875 2.93644 2.76649 2.85147 2.85147C2.76649 2.93644 2.71875 3.0517 2.71875 3.17188V20.3906C2.71875 20.6408 2.92175 20.8438 3.17188 20.8438H6.79688C7.1574 20.8438 7.50317 20.987 7.7581 21.2419C8.01303 21.4968 8.15625 21.8426 8.15625 22.2031V26.1725L13.0862 21.2425C13.3409 20.9875 13.6865 20.8441 14.0469 20.8438H25.8281C25.9483 20.8438 26.0636 20.796 26.1485 20.711C26.2335 20.6261 26.2812 20.5108 26.2812 20.3906V3.17188C26.2812 3.0517 26.2335 2.93644 26.1485 2.85147C26.0636 2.76649 25.9483 2.71875 25.8281 2.71875H3.17188ZM0 3.17188C0 1.421 1.421 0 3.17188 0H25.8281C27.579 0 29 1.421 29 3.17188V20.3906C29 21.2319 28.6658 22.0386 28.071 22.6335C27.4761 23.2283 26.6694 23.5625 25.8281 23.5625H14.6088L9.94519 28.2261C9.57587 28.5952 9.1054 28.8466 8.59326 28.9484C8.08111 29.0502 7.55027 28.9979 7.06784 28.7981C6.58541 28.5983 6.17304 28.26 5.88285 27.8259C5.59266 27.3918 5.43768 26.8814 5.4375 26.3592V23.5625H3.17188C2.33064 23.5625 1.52386 23.2283 0.929021 22.6335C0.334179 22.0386 0 21.2319 0 20.3906L0 3.17188ZM16.3125 16.3125C16.3125 16.7932 16.1215 17.2542 15.7816 17.5941C15.4417 17.934 14.9807 18.125 14.5 18.125C14.0193 18.125 13.5583 17.934 13.2184 17.5941C12.8785 17.2542 12.6875 16.7932 12.6875 16.3125C12.6875 15.8318 12.8785 15.3708 13.2184 15.0309C13.5583 14.691 14.0193 14.5 14.5 14.5C14.9807 14.5 15.4417 14.691 15.7816 15.0309C16.1215 15.3708 16.3125 15.8318 16.3125 16.3125ZM15.8594 6.79688C15.8594 6.43635 15.7162 6.09058 15.4612 5.83565C15.2063 5.58072 14.8605 5.4375 14.5 5.4375C14.1395 5.4375 13.7937 5.58072 13.5388 5.83565C13.2838 6.09058 13.1406 6.43635 13.1406 6.79688V11.3281C13.1406 11.6887 13.2838 12.0344 13.5388 12.2893C13.7937 12.5443 14.1395 12.6875 14.5 12.6875C14.8605 12.6875 15.2063 12.5443 15.4612 12.2893C15.7162 12.0344 15.8594 11.6887 15.8594 11.3281V6.79688Z" fill="#E30000"/>
</g>
<defs>
<clipPath id="clip0_33_417">
<rect width="29" height="29" fill="white"/>
</clipPath>
</defs>
</svg>
