<svg width="6" height="24" viewBox="0 0 6 24" fill="none" xmlns="http://www.w3.org/2000/svg">
<path d="M2.75125 8.75C2.38995 8.75 2.03219 8.82116 1.69839 8.95943C1.36459 9.09769 1.0613 9.30035 0.805823 9.55582C0.550346 9.8113 0.34769 10.1146 0.209427 10.4484C0.0711633 10.7822 2.84502e-07 11.14 2.84502e-07 11.5013C2.84502e-07 11.8625 0.0711633 12.2203 0.209427 12.5541C0.34769 12.8879 0.550346 13.1912 0.805823 13.4467C1.0613 13.7022 1.36459 13.9048 1.69839 14.0431C2.03219 14.1813 2.38995 14.2525 2.75125 14.2525C3.48093 14.2523 4.18065 13.9623 4.69649 13.4462C5.21234 12.9302 5.50204 12.2303 5.50187 11.5006C5.50171 10.7709 5.21169 10.0712 4.69561 9.55538C4.17953 9.03954 3.47968 8.74984 2.75 8.75H2.75125ZM2.75125 5.5C3.11239 5.49984 3.46995 5.42854 3.80353 5.29019C4.13712 5.15184 4.44018 4.94914 4.69543 4.69366C4.95067 4.43818 5.1531 4.13493 5.29115 3.80122C5.4292 3.46752 5.50016 3.10989 5.5 2.74875C5.49984 2.38762 5.42854 2.03005 5.29019 1.69647C5.15184 1.36288 4.94914 1.05982 4.69366 0.804573C4.43818 0.549328 4.13493 0.346902 3.80122 0.208853C3.46752 0.0708044 3.10988 -0.000163868 2.74875 2.84117e-07C2.0194 0.000331816 1.32006 0.290381 0.804572 0.806341C0.289082 1.3223 -0.000331236 2.0219 2.84502e-07 2.75125C0.000331805 3.4806 0.290381 4.17994 0.80634 4.69543C1.3223 5.21092 2.02191 5.50033 2.75125 5.5ZM2.75125 17.5C2.02157 17.5 1.32178 17.7899 0.805823 18.3058C0.289863 18.8218 2.84502e-07 19.5216 2.84502e-07 20.2513C2.84502e-07 20.9809 0.289863 21.6807 0.805823 22.1967C1.32178 22.7126 2.02157 23.0025 2.75125 23.0025C3.48093 23.0025 4.18072 22.7126 4.69668 22.1967C5.21264 21.6807 5.5025 20.9809 5.5025 20.2513C5.5025 19.5216 5.21264 18.8218 4.69668 18.3058C4.18072 17.7899 3.48093 17.5 2.75125 17.5Z" fill="black"/>
</svg>
